<?xml version="1.0" standalone="no"?>
<!DOCTYPE svg PUBLIC "-//W3C//DTD SVG 1.1//EN" "http://www.w3.org/Graphics/SVG/1.1/DTD/svg11.dtd" >
<svg xmlns="http://www.w3.org/2000/svg">
<metadata>Generated by IcoMoon</metadata>
<defs>
<font id="icomoon" horiz-adv-x="1024">
<font-face units-per-em="1024" ascent="960" descent="-64" />
<missing-glyph horiz-adv-x="1024" />
<glyph unicode="&#x20;" glyph-name="book" d="M56.887-35.556c-5.886 0.023-11.63 1.809-16.498 5.12-4.173 2.338-7.673 5.712-10.164 9.796s-3.888 8.744-4.058 13.528v796.442c-0.041 5.778 1.68 11.432 4.932 16.208s7.882 8.449 13.273 10.53l290.702 113.778c6.634 2.297 13.847 2.297 20.48 0l275.913-108.089 329.387 108.089c4.244 1.615 8.835 2.097 13.323 1.399s8.721-2.553 12.277-5.381c3.601-2.585 6.519-6.007 8.499-9.972 1.985-3.965 2.97-8.352 2.879-12.784v-796.442c0.040-5.939-1.809-11.73-5.291-16.543-3.482-4.807-8.402-8.38-14.052-10.194l-341.333-113.778c-6.252-2.264-13.096-2.264-19.342 0l-273.068 107.52-279.893-107.52c-2.573-0.905-5.248-1.479-7.964-1.707zM347.021 135.111c3.553 0.842 7.256 0.842 10.809 0l267.948-112.071 314.596 106.382v734.433l-301.511-98.987c-6.252-2.26-13.096-2.26-19.342 0l-274.775 107.52-261.689-100.124v-739.553l252.018 96.142c2.782 2.213 6.135 3.595 9.671 3.982l2.276 2.276zM344.75 75.947c-7.544 0-14.779 2.998-20.114 8.329-5.334 5.336-8.331 12.572-8.331 20.116v798.72c0 7.544 2.997 14.779 8.331 20.113s12.57 8.331 20.114 8.331c7.544 0 14.779-2.997 20.113-8.331s8.331-12.569 8.331-20.113v-796.444c0.315-3.92-0.188-7.868-1.476-11.583-1.287-3.721-3.333-7.134-6.006-10.018-2.673-2.89-5.916-5.188-9.525-6.758s-7.503-2.372-11.438-2.361zM630.886-35.556c-7.543 0-14.774 2.998-20.11 8.329-5.336 5.336-8.334 12.572-8.334 20.116v796.444c0 7.544 2.998 14.779 8.334 20.113s12.567 8.331 20.11 8.331c7.549 0 14.78-2.997 20.116-8.331s8.329-12.569 8.329-20.113v-796.444c0-7.543-2.992-14.78-8.329-20.116-5.336-5.33-12.567-8.329-20.116-8.329z" />
<glyph unicode="&#xe900;" glyph-name="inst" d="M485.158-12.315c-132.581 0-148.211 0.701-199.949 2.964-40.347 1.326-80.172 9.529-117.76 24.253-32.165 12.52-61.376 31.588-85.778 55.997-24.401 24.414-43.46 53.631-55.965 85.8-14.158 37.726-21.794 77.581-22.582 117.868-3.018 51.631-3.018 68.554-3.018 200.111 0 132.958 0.701 148.48 3.018 199.949 0.805 40.231 8.441 80.033 22.582 117.706 12.491 32.211 31.562 61.463 55.996 85.887s53.693 43.485 85.908 55.963c37.654 14.217 77.466 21.873 117.706 22.636 51.469 2.91 68.392 2.91 199.842 2.91 133.662 0 149.022-0.701 199.952-2.91 40.313-0.755 80.303-8.408 118.029-22.636 32.202-12.493 61.456-31.559 85.887-55.981 24.436-24.423 43.509-53.667 56.018-85.869 14.39-38.265 22.097-78.686 22.69-119.485 3.018-51.632 3.018-68.5 3.018-200.003s-0.755-148.749-3.018-199.788c-0.808-40.324-8.461-80.217-22.636-117.976-12.541-32.191-31.636-61.429-56.072-85.849s-53.685-43.488-85.887-56.002c-37.726-14.12-77.555-21.773-117.814-22.582-51.469-2.964-68.339-2.964-200.168-2.964zM483.325 874.415c-131.827 0-145.516-0.647-196.985-2.964-30.739-0.402-61.181-6.071-90.004-16.761-21.023-8.058-40.124-20.432-56.071-36.325s-28.389-34.949-36.52-55.943c-10.779-29.103-16.438-59.877-16.761-90.92-2.856-52.224-2.856-65.913-2.856-196.824 0-129.347 0.485-145.031 2.856-196.931 0.485-30.72 6.144-61.171 16.761-90.004 16.492-42.415 50.122-75.938 92.645-92.214 28.786-10.757 59.222-16.427 89.95-16.761 52.17-3.018 65.913-3.018 196.985-3.018 132.206 0 145.896 0.647 196.934 3.018 30.742 0.372 61.187 6.042 90.004 16.761 20.906 8.122 39.898 20.502 55.765 36.357s28.262 34.843 36.395 55.749c10.779 29.103 16.438 59.931 16.761 90.974h0.593c2.317 51.523 2.317 65.267 2.317 196.931s-0.593 145.516-2.91 196.986c-0.49 30.695-6.155 61.088-16.761 89.896-8.117 20.935-20.502 39.952-36.368 55.838s-34.87 28.292-55.792 36.43c-28.834 10.779-59.284 16.384-90.004 16.761-52.116 2.964-65.752 2.964-196.934 2.964zM485.158 225.738c-49.282-0.032-97.468 14.552-138.462 41.909s-72.954 66.253-91.838 111.772c-18.885 45.523-23.845 95.623-14.254 143.963s33.303 92.751 68.136 127.614c34.833 34.863 79.223 58.614 127.555 68.246s98.436 4.716 143.973-14.129c45.536-18.845 84.464-50.771 111.853-91.741 27.395-40.97 42.022-89.143 42.033-138.425-0.086-66.032-26.344-129.337-73.011-176.047-46.673-46.711-109.956-73.022-175.985-73.162zM485.158 636.739c-31.978 0-63.238-9.483-89.827-27.249s-47.312-43.018-59.55-72.561c-12.237-29.544-15.439-62.053-9.2-93.417 6.238-31.362 21.638-60.175 44.249-82.783 22.612-22.614 51.422-38.012 82.785-44.253 31.364-6.236 63.873-3.034 93.417 9.205 29.545 12.234 54.795 32.957 72.564 59.548 17.764 26.586 27.249 57.848 27.249 89.826-0.102 42.851-17.171 83.917-47.47 114.217s-71.366 47.367-114.216 47.467zM743.855 675.166c-7.631 0.028-15.182 1.559-22.221 4.505s-13.425 7.249-18.798 12.664c-10.86 10.936-16.923 25.736-16.864 41.145 0.054 15.409 6.23 30.163 17.165 41.018s25.735 16.922 41.149 16.865c15.409-0.058 30.159-6.233 41.014-17.169 10.86-10.936 16.923-25.736 16.869-41.145-0.059-15.409-6.236-30.164-17.171-41.019s-25.735-16.922-41.143-16.864z" />
<glyph unicode="&#xe901;" glyph-name="in" d="M568.889-64h-227.556v682.667h227.556v-113.778c23.956 30.477 54.357 55.275 89.031 72.615 34.668 17.34 72.75 26.793 111.502 27.68 67.777-0.376 132.636-27.615 180.361-75.744s74.416-113.218 74.217-180.996v-412.444h-227.556v384c-4.403 30.743-19.758 58.863-43.247 79.185s-53.527 31.474-84.582 31.407c-13.898-0.439-27.568-3.682-40.186-9.535-12.612-5.852-23.916-14.192-33.234-24.52-9.313-10.33-16.441-22.43-20.964-35.583s-6.337-27.085-5.342-40.954v-384zM227.556-64h-227.556v682.667h227.556v-682.667zM113.778 732.444c-30.176 0-59.116 11.987-80.453 33.325s-33.325 50.277-33.325 80.453c0 30.176 11.987 59.116 33.325 80.453s50.277 33.325 80.453 33.325c30.176 0 59.116-11.987 80.453-33.325s33.325-50.277 33.325-80.453c0-30.176-11.987-59.116-33.325-80.453s-50.277-33.325-80.453-33.325z" />
<glyph unicode="&#xe902;" glyph-name="youtube" d="M512.279 144.896h-0.931c-2.886 0-291.607 0.559-364.451 20.34-19.682 5.302-37.626 15.681-52.036 30.101-14.41 14.415-24.779 32.368-30.070 52.052-13.098 73.896-19.424 148.836-18.897 223.884-0.338 75.17 6.158 150.216 19.409 224.209 5.441 19.718 15.858 37.706 30.252 52.239s32.283 25.122 51.947 30.751c70.842 18.618 351.604 18.618 363.52 18.618h0.977c2.932 0 292.399-0.559 364.497-20.34 39.983-10.845 71.215-42.077 82.013-82.060 13.498-74.193 19.875-149.457 18.944-224.861 0.326-75.079-6.186-150.030-19.456-223.93-5.362-19.665-15.77-37.581-30.199-51.977s-32.372-24.767-52.047-30.082c-70.749-18.758-351.558-18.944-363.473-18.944zM419.188 610.676l-0.233-279.273 242.595 139.636-242.362 139.636z" />
<glyph unicode="&#xe903;" glyph-name="Group-3" d="M512-38.4c-96.201 0-190.241 28.529-270.229 81.971-79.988 53.448-142.331 129.413-179.146 218.291s-46.447 186.677-27.679 281.029c18.768 94.352 65.093 181.021 133.117 249.045s154.693 114.35 249.045 133.117c94.352 18.768 192.151 9.136 281.029-27.679s164.844-99.158 218.291-179.146c53.443-79.988 81.971-174.028 81.971-270.229-0.133-128.957-51.425-252.6-142.612-343.788s-214.83-142.479-343.788-142.612zM512 883.2c-86.074 0-170.215-25.524-241.784-73.345s-127.349-115.789-160.288-195.312c-32.94-79.523-41.558-167.025-24.765-251.449 16.792-84.419 58.241-161.966 119.105-222.828 60.863-60.867 138.409-102.313 222.83-119.107s171.922-8.172 251.446 24.765c79.524 32.942 147.492 88.719 195.313 160.287 47.821 71.572 73.344 155.715 73.344 241.787-0.133 115.38-46.029 225.996-127.616 307.583s-192.205 127.481-307.584 127.617zM512 181.248c-52.756 0-104.33 15.642-148.197 44.954s-78.057 70.973-98.247 119.716c-20.19 48.742-25.473 102.376-15.18 154.121s35.698 99.275 73.004 136.581c37.306 37.306 84.837 62.712 136.582 73.005s105.379 5.010 154.121-15.18c48.742-20.19 90.404-54.38 119.716-98.247s44.954-95.441 44.954-148.197c-0.133-70.707-28.283-138.481-78.28-188.472-49.992-49.997-117.765-78.147-188.472-78.28zM512 663.55c-42.63 0-84.305-12.642-119.752-36.327s-63.075-57.35-79.39-96.737c-16.315-39.387-20.583-82.727-12.266-124.542 8.317-41.81 28.846-80.22 58.992-110.367 30.146-30.141 68.553-50.673 110.366-58.988 41.813-8.32 85.155-4.050 124.538 12.262 39.388 16.317 73.052 43.945 96.737 79.391s36.326 77.123 36.326 119.757c-0.133 57.124-22.886 111.872-63.283 152.267-40.392 40.395-95.14 63.148-152.269 63.283zM972.8 422.4h-921.6c-6.79 0-13.301 2.698-18.102 7.496-4.801 4.803-7.498 11.315-7.498 18.104s2.697 13.301 7.498 18.102c4.801 4.801 11.312 7.498 18.102 7.498h921.6c6.789 0 13.302-2.697 18.104-7.498 4.797-4.801 7.496-11.312 7.496-18.102s-2.698-13.302-7.496-18.104c-4.803-4.797-11.315-7.496-18.104-7.496zM512-38.4c-6.79 0-13.301 2.698-18.102 7.496-4.801 4.803-7.498 11.315-7.498 18.104v921.6c0 6.79 2.697 13.301 7.498 18.102s11.312 7.498 18.102 7.498c6.789 0 13.302-2.697 18.104-7.498 4.797-4.801 7.496-11.312 7.496-18.102v-921.6c0-6.789-2.698-13.302-7.496-18.104-4.803-4.797-11.315-7.496-18.104-7.496z" />
<glyph unicode="&#xe905;" glyph-name="mech" d="M511.995 86.366c-7.108 0.102-13.888 3.007-18.863 8.084l-307.2 307.2c-2.526 2.506-4.53 5.486-5.898 8.769s-2.073 6.807-2.073 10.364c0 3.556 0.704 7.078 2.073 10.362s3.373 6.264 5.898 8.769l452.177 458.105c2.258 2.773 5.152 4.957 8.435 6.365 3.288 1.408 6.866 1.998 10.429 1.719h309.895c7.103-0.138 13.878-3.021 18.901-8.045s7.906-11.798 8.046-18.902l3.234-306.661c0.086-3.62-0.593-7.217-1.983-10.559s-3.471-6.355-6.101-8.843l-458.105-458.643c-5.008-5.028-11.767-7.928-18.863-8.084zM242.521 421.053l269.474-269.474 431.158 431.156-3.234 269.474h-269.474l-427.924-431.156zM662.372-64c-7.012 0.065-13.743 2.759-18.863 7.545l-608.472 608.471c-2.526 2.505-4.53 5.485-5.899 8.769s-2.072 6.806-2.072 10.363c0 3.557 0.704 7.079 2.072 10.363s3.373 6.264 5.899 8.77c2.419 2.578 5.341 4.632 8.586 6.037s6.742 2.129 10.277 2.129c3.535 0 7.033-0.724 10.277-2.129s6.166-3.459 8.586-6.037l609.011-608.471c4.969-5.131 7.75-11.992 7.75-19.133s-2.781-14.007-7.75-19.133c-5.314-4.824-12.223-7.508-19.402-7.545zM242.526-60.766c-7.283 0.022-14.261 2.926-19.402 8.084l-187.015 184.32c-2.815 2.517-5.081 5.589-6.657 9.017-1.576 3.433-2.429 7.152-2.505 10.924 0 14.552 0 16.707 215.579 228.514 2.505 2.528 5.485 4.533 8.769 5.901s6.806 2.070 10.363 2.070c3.558 0 7.080-0.701 10.363-2.070s6.264-3.374 8.769-5.901c4.972-5.125 7.752-11.986 7.752-19.133 0-7.141-2.78-14.002-7.752-19.133-58.206-60.362-151.444-152.522-188.093-190.248l149.827-147.133 190.248 190.787c5.074 5.077 11.957 7.928 19.133 7.928s14.058-2.851 19.133-7.928c5.074-5.071 7.925-11.954 7.925-19.133 0-7.173-2.85-14.056-7.925-19.133l-212.345-209.651c-4.298-4.473-10.009-7.33-16.168-8.084zM512.003 394.105c-3.534-0.043-7.038 0.658-10.287 2.048s-6.17 3.449-8.576 6.036c-2.578 2.42-4.632 5.341-6.037 8.585s-2.129 6.742-2.129 10.279c0 3.535 0.724 7.033 2.129 10.278s3.459 6.166 6.037 8.585l215.582 215.579c2.474 2.477 5.416 4.442 8.65 5.783 3.239 1.34 6.71 2.031 10.213 2.031s6.969-0.69 10.208-2.031c3.234-1.341 6.176-3.306 8.655-5.783 2.474-2.477 4.441-5.418 5.778-8.654 1.342-3.236 2.032-6.706 2.032-10.209s-0.69-6.972-2.032-10.209c-1.337-3.236-3.304-6.177-5.778-8.654l-215.582-215.58c-2.406-2.587-5.327-4.646-8.576-6.036s-6.752-2.091-10.287-2.048z" />
<glyph unicode="&#xe906;" glyph-name="4kv" d="M366.078 499.199h-256c-22.725-0.001-44.526 8.992-60.642 25.012s-25.239 37.768-25.374 60.492v256c0.134 22.771 9.24 44.572 25.342 60.674s37.903 25.207 60.674 25.342h256c22.771-0.134 44.572-9.24 60.674-25.342s25.208-37.903 25.342-60.674v-256c-0.135-22.724-9.257-44.471-25.374-60.492s-37.918-25.013-60.642-25.012zM110.078 876.031c-9.192-0.133-17.972-3.843-24.472-10.344s-10.212-15.28-10.344-24.472v-256c0-9.234 3.668-18.089 10.198-24.619s15.385-10.197 24.618-10.197h256c9.234 0 18.089 3.668 24.618 10.197s10.198 15.385 10.198 24.619v256c-0.132 9.192-3.843 17.971-10.343 24.472s-15.28 10.211-24.473 10.344h-256zM913.93 499.199h-256c-22.815 0-44.692 9.062-60.826 25.193-16.128 16.131-25.19 38.010-25.19 60.823v256c0.133 22.771 9.236 44.572 25.339 60.674s37.903 25.207 60.677 25.342h256c22.769-0.134 44.57-9.24 60.672-25.342s25.206-37.903 25.344-60.674v-256c0-22.813-9.062-44.691-25.196-60.823s-38.011-25.193-60.82-25.193zM657.93 876.031c-9.196-0.133-17.971-3.843-24.474-10.344s-10.214-15.28-10.342-24.472v-256c0-9.234 3.666-18.089 10.194-24.618 6.533-6.53 15.386-10.198 24.622-10.198h256c9.231 0 18.089 3.668 24.617 10.198s10.199 15.385 10.199 24.618v256c-0.133 9.192-3.845 17.971-10.348 24.472-6.497 6.501-15.278 10.211-24.468 10.344h-256zM366.078-30.72h-256c-22.771 0.133-44.572 9.242-60.674 25.344s-25.208 37.898-25.342 60.672v256c0.135 22.723 9.257 44.472 25.374 60.493s37.918 25.011 60.642 25.011h256c22.813 0 44.691-9.062 60.823-25.196 16.131-16.128 25.193-38.006 25.193-60.82v-256c-0.268-22.682-9.433-44.355-25.52-60.344s-37.812-25.027-60.496-25.16zM110.078 345.6c-9.234 0-18.089-3.666-24.618-10.199-6.53-6.528-10.198-15.386-10.198-24.617v-256c0.132-9.19 3.843-17.971 10.344-24.474 6.5-6.497 15.28-10.209 24.472-10.342h256c9.192 0.133 17.972 3.845 24.473 10.342 6.5 6.502 10.211 15.283 10.343 24.474v256c0 9.231-3.668 18.089-10.198 24.617-6.529 6.533-15.385 10.199-24.618 10.199h-256zM913.93-30.72h-256c-22.774 0.133-44.575 9.242-60.677 25.344s-25.206 37.898-25.339 60.672v256c0.133 22.723 9.257 44.472 25.37 60.493 16.118 16.020 37.919 25.011 60.646 25.011h256c22.81 0 44.687-9.062 60.82-25.196 16.133-16.128 25.196-38.006 25.196-60.82v-256c-0.271-22.682-9.436-44.355-25.523-60.344s-37.811-25.027-60.493-25.16zM657.93 346.112c-9.236 0-18.089-3.666-24.622-10.199-6.528-6.528-10.194-15.386-10.194-24.617v-256c0.128-9.19 3.84-17.971 10.342-24.474 6.502-6.497 15.278-10.209 24.474-10.342h256c9.19 0.133 17.971 3.845 24.468 10.342 6.502 6.502 10.214 15.283 10.348 24.474v256c0 9.231-3.671 18.089-10.199 24.617-6.528 6.533-15.386 10.199-24.617 10.199h-256z" />
<glyph unicode="&#xe907;" glyph-name="grib" d="M434.738 189.677c-4.714-0.093-9.348 1.219-13.313 3.77s-7.079 6.228-8.947 10.557c-1.868 4.329-2.405 9.114-1.543 13.75s3.086 8.909 6.387 12.274c3.301 3.365 7.529 5.674 12.146 6.628s9.413 0.512 13.778-1.271c4.365-1.783 8.1-4.822 10.729-8.737s4.035-8.518 4.035-13.233c0.001-6.218-2.436-12.186-6.788-16.626-4.352-4.436-10.27-6.991-16.485-7.112zM605.556 189.677c12.856 0 23.273 10.417 23.273 23.273 0 12.851-10.417 23.273-23.273 23.273-12.851 0-23.273-10.422-23.273-23.273 0-12.856 10.422-23.273 23.273-23.273zM617.658 6.749h-211.315c-54.81 0-107.375 21.774-146.132 60.532-38.757 38.754-60.53 91.322-60.53 146.129 0 54.812 21.773 107.376 60.53 146.134 38.757 38.754 91.322 60.528 146.132 60.528h211.315c54.812 0 107.376-21.774 146.134-60.528 38.758-38.758 60.528-91.322 60.528-146.134 0-54.807-21.769-107.376-60.528-146.129-38.758-38.758-91.322-60.532-146.134-60.532zM406.344 373.527c-21.027 0-41.848-4.143-61.274-12.186-19.426-8.048-37.077-19.842-51.946-34.709-14.868-14.871-26.662-32.521-34.709-51.945-8.046-19.428-12.188-40.248-12.188-61.277 0-21.025 4.142-41.844 12.188-61.272s19.841-37.078 34.709-51.945c14.868-14.871 32.519-26.661 51.946-34.709s40.247-12.19 61.274-12.19h211.315c42.468 0 83.195 16.873 113.222 46.899s46.895 70.754 46.895 113.217c0 42.468-16.868 83.191-46.895 113.222-30.026 30.026-70.754 46.895-113.222 46.895h-211.315zM884.364 305.571h-124.742c-6.172 0-12.093 2.453-16.458 6.819-4.361 4.361-6.814 10.282-6.814 16.454s2.453 12.093 6.814 16.458c4.366 4.361 10.287 6.814 16.458 6.814h124.742c22.43 0.121 43.906 9.086 59.764 24.948 15.863 15.858 24.827 37.334 24.948 59.764-0.126 107.528-42.859 210.622-118.849 286.699s-179.037 118.932-286.562 119.179h-98.212c-107.607-0.123-210.772-42.925-286.862-119.014s-118.891-179.254-119.014-286.863c0.122-22.43 9.087-43.906 24.947-59.764 15.86-15.863 37.336-24.827 59.766-24.948h120.087c6.172 0 12.092-2.453 16.456-6.814 4.365-4.366 6.817-10.287 6.817-16.458s-2.452-12.093-6.817-16.454c-4.364-4.366-10.284-6.819-16.456-6.819h-122.415c-34.812 0-68.198 13.829-92.813 38.447-24.616 24.613-38.445 58-38.445 92.812 0.061 59.593 11.882 118.587 34.785 173.602s56.439 104.968 98.685 146.998c42.246 42.030 92.371 75.309 147.503 97.929s114.185 34.139 173.777 33.894h98.212c119.789-0.246 234.603-47.942 319.306-132.647 84.708-84.705 132.403-199.519 132.65-319.311 0-34.853-13.815-68.287-38.419-92.979-24.599-24.688-57.986-38.619-92.84-38.744zM101.003 432.645c-25.418 0.396-50.531 5.604-74.007 15.359-2.844 1.128-5.438 2.807-7.632 4.939s-3.947 4.675-5.158 7.485c-1.211 2.81-1.855 5.832-1.897 8.891s0.52 6.097 1.654 8.939c1.025 2.867 2.626 5.495 4.704 7.72s4.588 4.004 7.378 5.225c2.79 1.22 5.8 1.858 8.845 1.873s6.061-0.593 8.863-1.785c18.28-6.999 37.677-10.625 57.251-10.705 32.134 0.226 63.361 10.679 89.155 29.845s44.814 46.047 54.305 76.748c9.491 30.701 8.958 63.628-1.522 94.006s-30.36 56.63-56.76 74.951c-4.29 3.746-7.058 8.935-7.779 14.585s0.655 11.368 3.867 16.071c3.212 4.703 8.037 8.066 13.562 9.45s11.365 0.695 16.416-1.938c35.063-23.724 61.59-58.070 75.683-97.99s15.006-83.308 2.607-123.786c-12.399-40.478-37.456-75.911-71.489-101.090-34.033-25.181-75.245-38.777-117.58-38.791h-0.465zM989.556 433.576c-72.732 5.502-140.721 38.211-190.413 91.61-49.687 53.399-77.428 123.563-77.689 196.504-0.098 35.177 6.377 70.064 19.084 102.865 1.131 2.844 2.807 5.437 4.938 7.632s4.678 3.948 7.489 5.158c2.807 1.21 5.827 1.855 8.89 1.896 3.058 0.042 6.097-0.52 8.937-1.654 2.867-1.025 5.497-2.626 7.722-4.703s4.003-4.588 5.222-7.378c1.224-2.789 1.862-5.8 1.876-8.845s-0.591-6.061-1.787-8.862c-12.977-35.090-17.664-72.706-13.684-109.907 3.975-37.201 16.505-72.977 36.608-104.53s47.234-58.026 79.272-77.349c32.037-19.323 68.11-30.971 105.398-34.033 6.172 0 12.093-2.452 16.458-6.817 4.361-4.365 6.814-10.284 6.814-16.456s-2.453-12.091-6.814-16.457c-4.366-4.366-10.287-6.814-16.458-6.814l-1.862-1.862z" />
<glyph unicode="&#xe908;" glyph-name="telega" d="M716.335 293.93h-195.025c-6.177 0-12.093 2.453-16.458 6.819s-6.814 10.282-6.814 16.454c0 6.172 2.448 12.093 6.814 16.458s10.282 6.814 16.458 6.814h195.025c6.172 0 12.088-2.448 16.454-6.814s6.819-10.287 6.819-16.458c0-6.172-2.453-12.088-6.819-16.454s-10.282-6.819-16.454-6.819zM847.588 308.364c-2.755-0.656-5.623-0.656-8.378 0-2.867 1.033-5.497 2.63-7.741 4.701-2.239 2.067-4.040 4.566-5.302 7.34-1.257 2.779-1.946 5.781-2.025 8.83-0.079 3.044 0.456 6.079 1.569 8.918l110.778 296.028c2.192 5.715 6.549 10.337 12.125 12.864s11.92 2.755 17.664 0.634c5.762-2.295 10.422-6.712 13.019-12.342s2.937-12.041 0.945-17.913l-110.778-294.632c-1.876-4.254-4.934-7.875-8.816-10.431-3.877-2.56-8.411-3.947-13.061-3.998zM372.359 299.515c-4.856-0.033-9.597 1.485-13.532 4.329-3.934 2.849-6.858 6.875-8.345 11.497l-146.153 444.045h-139.636c-6.172 0-12.092 2.452-16.456 6.817s-6.816 10.284-6.816 16.456c0.119 6.135 2.609 11.986 6.948 16.324s10.19 6.829 16.324 6.948h156.393c4.823-0.103 9.499-1.672 13.407-4.5s6.862-6.778 8.469-11.326l153.135-459.871c1.020-2.867 1.455-5.916 1.279-8.955s-0.96-6.018-2.305-8.751c-1.345-2.732-3.224-5.167-5.526-7.163s-4.98-3.51-7.877-4.454c-2.957-1.164-6.14-1.643-9.309-1.396zM444.034 90.061c-27.618 0-54.615 8.192-77.578 23.533-22.963 15.346-40.861 37.153-51.429 62.669s-13.334 53.592-7.946 80.677c5.388 27.085 18.687 51.968 38.216 71.498 19.528 19.526 44.409 32.826 71.496 38.213s55.164 2.623 80.676-7.946c25.516-10.569 47.327-28.466 62.669-51.431 15.341-22.961 23.533-49.957 23.533-77.577 0-37.032-14.713-72.55-40.899-98.737s-61.705-40.899-98.737-40.899zM444.034 322.788c-18.412 0-36.41-5.46-51.719-15.686-15.309-10.231-27.241-24.767-34.286-41.779-7.046-17.008-8.89-35.728-5.297-53.783 3.592-18.060 12.458-34.648 25.477-47.667s29.606-21.886 47.664-25.474c18.058-3.593 36.775-1.75 53.787 5.297 17.008 7.047 31.549 18.977 41.775 34.285 10.231 15.309 15.69 33.308 15.69 51.717 0 24.692-9.807 48.37-27.266 65.825-17.459 17.459-41.137 27.266-65.825 27.266zM793.591 90.061c-27.615 0-54.616 8.192-77.577 23.533-22.966 15.346-40.862 37.153-51.428 62.669-10.57 25.516-13.335 53.592-7.945 80.677 5.385 27.085 18.683 51.968 38.214 71.498 19.526 19.526 44.409 32.826 71.494 38.213 27.089 5.388 55.166 2.623 80.682-7.946 25.512-10.569 47.323-28.466 62.664-51.431 15.346-22.961 23.533-49.957 23.533-77.577 0-37.032-14.713-72.55-40.899-98.737s-61.701-40.899-98.737-40.899zM793.591 322.788c-18.413 0-36.408-5.46-51.717-15.686-15.309-10.231-27.243-24.767-34.29-41.779-7.042-17.008-8.886-35.728-5.297-53.783 3.593-18.060 12.46-34.648 25.479-47.667s29.608-21.886 47.663-25.474c18.060-3.593 36.776-1.75 53.788 5.297 17.008 7.047 31.549 18.977 41.775 34.285 10.231 15.309 15.69 33.308 15.69 51.717 0 24.692-9.807 48.37-27.266 65.825-17.459 17.459-41.137 27.266-65.825 27.266z" />
<glyph unicode="&#xe909;" glyph-name="surch" d="M396.799 192c-73.46 0-145.268 21.796-206.334 62.628-61.066 40.837-108.642 98.872-136.707 166.758s-35.356 142.575-20.95 214.608c14.406 72.034 49.861 138.173 101.877 190.046s118.253 87.144 190.326 101.351c72.073 14.207 146.741 6.71 214.55-21.542s125.711-75.99 166.38-137.167c40.663-61.178 62.259-133.046 62.060-206.506-0.41-98.229-39.68-192.302-109.235-261.668-69.555-69.361-163.736-108.375-261.966-108.508zM396.799 883.2c-63.246-0.001-125.074-18.743-177.676-53.86s-93.617-85.033-117.866-143.447c-24.25-58.413-30.647-122.701-18.382-184.747s42.64-119.067 87.291-163.862c44.65-44.79 101.573-75.351 163.579-87.813s126.315-6.272 184.804 17.792c58.491 24.064 108.539 64.922 143.826 117.407 35.282 52.49 54.221 114.259 54.426 177.505 0 84.869-33.715 166.262-93.727 226.274s-141.405 93.726-226.274 93.726v1.024zM972.795-39.424c-3.359-0.041-6.687 0.62-9.774 1.94-3.087 1.326-5.862 3.277-8.146 5.74l-331.776 331.776c-4.751 4.751-7.424 11.197-7.424 17.92s2.673 13.169 7.424 17.92c4.751 4.751 11.197 7.424 17.92 7.424s13.169-2.673 17.92-7.424l331.776-331.776c2.447-2.299 4.398-5.074 5.734-8.156s2.022-6.405 2.022-9.764c0-3.359-0.686-6.682-2.022-9.764s-3.287-5.857-5.734-8.156c-2.289-2.463-5.064-4.413-8.151-5.74-3.082-1.321-6.41-1.981-9.769-1.94z" />
<glyph unicode="&#xe90a;" glyph-name="pomb" d="M1001.243 438.671c0.106-4.943-1.502-9.766-4.55-13.653l-233.018-311.753c-2.12-2.857-4.857-5.202-8.008-6.857-3.154-1.655-6.639-2.577-10.196-2.7h-466.488c-3.636 0.055-7.21 0.942-10.446 2.601s-6.047 4.038-8.214 6.956l-233.017 311.753c-2.886 3.966-4.44 8.745-4.44 13.653 0 4.905 1.555 9.684 4.44 13.653l233.017 311.75c2.19 2.861 5.017 5.174 8.255 6.754s6.801 2.384 10.404 2.349h466.488c3.526-0.034 7.001-0.872 10.155-2.449s5.908-3.853 8.049-6.653l233.018-311.75c2.983-3.925 4.584-8.724 4.55-13.653zM734.095 149.221l216.177 289.451-216.177 288.994h-443.734l-216.633-288.994 216.633-289.451h443.734zM743.195 438.671c0.106-4.943-1.505-9.766-4.553-13.653l-104.219-139.721c-2.144-2.799-4.898-5.076-8.052-6.653s-6.625-2.413-10.151-2.447h-208.442c-3.526 0.034-6.997 0.87-10.155 2.447-3.154 1.577-5.905 3.854-8.049 6.653l-105.132 139.721c-3.102 3.874-4.792 8.69-4.792 13.653s1.69 9.779 4.792 13.653l104.22 139.263c2.068 2.881 4.806 5.215 7.977 6.801s6.683 2.376 10.226 2.302h208.442c3.546 0.074 7.055-0.716 10.226-2.302s5.912-3.92 7.977-6.801l106.042-139.263c2.662-4.038 3.939-8.83 3.642-13.653zM603.020 321.707l91.023 116.965-91.023 117.418h-182.043l-91.023-117.418 91.023-116.965h182.043z" />
<glyph unicode="&#xe90b;" glyph-name="messanger" d="M516.554-20.759c-77.405-0.074-153.692 18.466-222.436 54.044-3.325 1.718-6.278 4.073-8.692 6.929-2.414 2.862-4.24 6.167-5.377 9.734s-1.558 7.322-1.242 11.054c0.315 3.726 1.362 7.356 3.080 10.684 1.718 3.322 4.074 6.275 6.934 8.687 2.86 2.418 6.167 4.244 9.733 5.382 3.566 1.132 7.32 1.553 11.050 1.24s7.359-1.36 10.684-3.078c92.075-46.842 197.989-58.789 298.18-33.627 100.198 25.162 187.898 85.732 246.921 170.519 59.017 84.787 85.362 188.065 74.166 290.761s-59.17 197.874-135.071 267.954c-75.901 70.080-174.592 110.329-277.854 113.314s-204.116-31.497-283.936-97.076c-79.82-65.579-133.214-157.826-150.322-259.705s3.228-206.505 57.25-294.558c3.811-6.519 4.932-14.262 3.127-21.589-1.806-7.333-6.397-13.665-12.798-17.664-3.207-1.963-6.771-3.271-10.486-3.846s-7.507-0.41-11.158 0.489c-3.65 0.899-7.086 2.514-10.108 4.75s-5.572 5.046-7.501 8.277c-62.43 99.971-86.196 219.302-66.833 335.564s80.523 221.451 171.983 295.793c91.461 74.343 206.926 112.721 324.692 107.922s229.725-52.446 314.836-133.984c65.724-60.919 113.226-138.905 137.205-225.253 23.984-86.348 23.495-177.662-1.405-263.749-24.9-86.090-73.233-163.561-139.605-223.778s-148.173-100.801-236.265-117.225c-29.269-5.45-58.982-8.118-88.75-7.964zM75.098-50.341c-11.028 0.205-21.835 3.129-31.464 8.505-9.63 5.382-17.786 13.050-23.748 22.329s-9.545 19.883-10.433 30.879c-0.888 10.991 0.947 22.039 5.342 32.154l86.471 194.56c3.219 6.895 9.017 12.248 16.147 14.911s15.019 2.412 21.968-0.688c6.855-3.106 12.2-8.801 14.866-15.838s2.434-14.842-0.644-21.709l-87.040-194.56c-1.108-1.479-1.707-3.277-1.707-5.12 0-1.849 0.598-3.647 1.707-5.12 1.242-1.422 2.875-2.452 4.694-2.958 1.82-0.501 3.748-0.466 5.546 0.114l219.022 77.938c3.505 1.348 7.247 1.974 10.999 1.843 3.754-0.137 7.441-1.024 10.841-2.623 3.4-1.593 6.444-3.857 8.947-6.656s4.416-6.076 5.621-9.631c2.562-7.094 2.203-14.911-0.997-21.737s-8.98-12.106-16.070-14.672l-217.315-77.938c-7.28-2.702-14.991-4.050-22.756-3.982z" />
<glyph unicode="&#xe90c;" glyph-name="nastr" d="M512-36.538c-16.835-0.033-33.475 3.617-48.751 10.691-15.277 7.075-28.821 17.408-39.683 30.269l-40.96 46.545c-6.953 8.173-15.687 14.648-25.53 18.925s-20.535 6.242-31.255 5.744l-62.371-5.585c-16.818-1.401-33.741 0.87-49.593 6.661-15.853 5.786-30.257 14.955-42.213 26.866s-21.178 26.284-27.026 42.114c-5.848 15.83-8.182 32.745-6.841 49.566l1.862 63.767c0.867 11.036-0.921 22.118-5.213 32.321s-10.963 19.228-19.456 26.326l-46.545 40.495c-12.925 10.882-23.315 24.455-30.443 39.768-7.128 15.318-10.821 32.009-10.821 48.901 0 16.896 3.693 33.587 10.821 48.902 7.128 15.317 17.519 28.89 30.443 39.769l46.545 40.96c8.303 7.051 14.854 15.935 19.135 25.951s6.176 20.891 5.534 31.765l-4.655 63.767c-1.403 16.818 0.868 33.741 6.657 49.593s14.957 30.257 26.869 42.213c11.911 11.956 26.281 21.177 42.112 27.026s32.745 8.182 49.569 6.841l62.836-3.258c10.881-1.091 21.867 0.405 32.059 4.369s19.303 10.282 26.588 18.438l40.495 46.545c10.854 13.361 24.548 24.136 40.086 31.543s32.532 11.26 49.745 11.278c16.84 0.035 33.48-3.613 48.756-10.689s28.821-17.408 39.68-30.271l40.96-46.545c7-8.121 15.742-14.557 25.572-18.829 9.835-4.271 20.503-6.268 31.213-5.841l62.371 5.585c16.822 1.403 33.741-0.868 49.594-6.657s30.259-14.958 42.212-26.869c11.958-11.911 21.178-26.281 27.029-42.112 5.846-15.831 8.183-32.745 6.838-49.568l-1.862-63.767c-0.866-11.035 0.922-22.117 5.213-32.32s10.966-19.23 19.456-26.328l46.545-40.495c12.926-10.879 23.319-24.452 30.445-39.769 7.126-15.314 10.822-32.006 10.822-48.902 0-16.891-3.696-33.583-10.822-48.901-7.126-15.313-17.52-28.886-30.445-39.768l-46.545-40.96c-8.304-7.052-14.853-15.933-19.135-25.949s-6.177-20.89-5.534-31.767l5.585-62.836c1.406-16.817-0.866-33.741-6.656-49.594-5.79-15.849-14.955-30.255-26.871-42.212-11.911-11.953-26.28-21.174-42.11-27.024-15.83-5.846-32.745-8.183-49.571-6.842l-63.767 2.327c-11.027 0.829-22.1-0.977-32.293-5.264-10.198-4.291-19.228-10.938-26.354-19.405l-40.495-46.545c-10.836-12.921-24.367-23.324-39.638-30.483-15.276-7.154-31.93-10.887-48.798-10.943l-1.396 0.465zM330.475 122.182c16.836 0.037 33.476-3.612 48.753-10.687s28.821-17.408 39.683-30.273l40.96-46.545c6.468-7.778 14.585-14.024 23.76-18.292 9.179-4.264 19.186-6.442 29.3-6.377 10.161 0.084 20.191 2.327 29.417 6.582 9.23 4.25 17.45 10.417 24.111 18.088l40.495 46.545c11.739 14.262 26.773 25.446 43.804 32.582s35.547 10.012 53.942 8.378l62.836-4.655c10.068-0.926 20.21 0.386 29.71 3.849 9.495 3.458 18.106 8.979 25.214 16.165 7.145 7.238 12.637 15.937 16.091 25.498 3.454 9.565 4.794 19.763 3.924 29.891l-4.655 63.767c-1.699 18.381 1.047 36.901 8.015 53.997s17.948 32.261 32.014 44.214l46.545 40.96c7.834 6.279 14.182 14.206 18.609 23.217 4.422 9.007 6.81 18.879 6.991 28.914-0.079 10.161-2.323 20.191-6.577 29.417-4.254 9.23-10.422 17.448-18.092 24.112l-46.545 40.495c-14.364 11.852-25.609 27.043-32.749 44.244s-9.956 35.89-8.211 54.432l4.655 62.836c0.898 10.062-0.433 20.198-3.891 29.69s-8.96 18.106-16.123 25.234c-7.215 7.17-15.909 12.676-25.479 16.133s-19.777 4.782-29.91 3.881l-63.767-4.655c-18.39-1.823-36.948 0.871-54.063 7.847s-32.27 18.023-44.148 32.182l-40.96 46.545c-6.279 7.829-14.206 14.181-23.212 18.606-9.011 4.424-18.883 6.812-28.919 6.994-10.161-0.083-20.187-2.325-29.417-6.579-9.225-4.253-17.445-10.419-24.109-18.090l-40.495-46.545c-11.879-14.335-27.074-25.557-44.268-32.694s-35.87-9.975-54.408-8.266l-62.836 4.655c-10.062 0.895-20.198-0.434-29.69-3.893s-18.106-8.963-25.234-16.122c-7.334-7.391-12.935-16.32-16.396-26.141s-4.697-20.288-3.618-30.645l4.655-62.371c1.703-18.381-1.046-36.903-8.013-53.997s-17.949-32.26-32.016-44.214l-46.545-40.96c-7.829-6.28-14.181-14.207-18.606-23.214-4.424-9.011-6.812-18.883-6.994-28.919 0.083-10.161 2.325-20.187 6.578-29.417 4.253-9.225 10.42-17.445 18.091-24.111l46.545-40.495c14.366-11.85 25.611-27.043 32.751-44.241 7.141-17.203 9.959-35.891 8.209-54.435l-4.655-62.836c-0.895-10.063 0.434-20.196 3.893-29.687 3.459-9.495 8.963-18.106 16.122-25.237 7.217-7.168 15.913-12.674 25.481-16.133s19.775-4.78 29.908-3.882l63.767 4.655h9.775zM512 285.091c-43.208 0-84.643 17.161-115.194 47.714s-47.715 71.987-47.715 115.195c0 43.208 17.164 84.643 47.715 115.194s71.986 47.715 115.194 47.715c43.208 0 84.643-17.164 115.195-47.715s47.714-71.986 47.714-115.194c0-43.208-17.161-84.643-47.714-115.195s-71.987-47.714-115.195-47.714zM512 564.364c-30.86 0-60.459-12.26-82.282-34.082s-34.082-51.422-34.082-82.282c0-30.86 12.26-60.458 34.082-82.283 21.822-21.821 51.422-34.081 82.282-34.081s60.458 12.26 82.283 34.081c21.821 21.825 34.081 51.423 34.081 82.283s-12.26 60.459-34.081 82.282c-21.825 21.822-51.423 34.082-82.283 34.082z" />
<glyph unicode="&#xe90d;" glyph-name="thel" d="M511.996 290.811c-31.088 0-61.478 9.221-87.327 26.491-25.849 17.275-45.996 41.82-57.892 70.543s-15.009 60.326-8.945 90.817c6.065 30.491 21.036 58.498 43.018 80.481s49.99 36.953 80.481 43.018c30.491 6.065 62.095 2.952 90.818-8.945 28.718-11.897 53.268-32.044 70.538-57.892 17.275-25.849 26.491-56.239 26.491-87.329-0.133-41.646-16.737-81.546-46.188-110.996-29.445-29.445-69.35-46.049-110.995-46.188zM511.996 553.981c-20.961 0-41.453-6.216-58.882-17.861s-31.013-28.198-39.035-47.564c-8.022-19.366-10.12-40.678-6.031-61.235s14.183-39.444 29.005-54.267c14.822-14.822 33.707-24.914 54.266-29.005s41.866-1.992 61.235 6.031c19.364 8.023 35.917 21.606 47.565 39.035 11.643 17.428 17.859 37.919 17.859 58.88 0 28.111-11.167 55.068-31.043 74.945s-46.833 31.042-74.94 31.042zM512 115.195c-65.822 0-130.165 19.517-184.893 56.084-54.729 36.572-97.384 88.545-122.573 149.356-25.189 60.815-31.78 127.728-18.938 192.285s44.537 123.856 91.080 170.399c46.543 46.543 105.842 78.239 170.399 91.080s131.471 6.25 192.281-18.938c60.815-25.189 112.788-67.845 149.361-122.573 36.567-54.729 56.084-119.072 56.084-184.892 0-88.264-35.062-172.913-97.475-235.325s-147.062-97.475-235.325-97.475zM512 729.594c-55.695 0-110.139-16.516-156.448-47.458s-82.402-74.922-103.716-126.378c-21.314-51.456-26.89-108.075-16.025-162.7s37.686-104.801 77.068-144.184c39.382-39.383 89.559-66.202 144.184-77.066 54.625-10.87 111.247-5.289 162.703 16.020 51.456 21.315 95.432 57.411 126.377 103.716 30.94 46.31 47.457 100.756 47.457 156.452-0.133 74.642-29.85 146.19-82.627 198.97-52.782 52.781-124.329 82.493-198.973 82.629zM512.005-60.421c-100.557 0-198.854 29.819-282.462 85.683-83.609 55.869-148.773 135.27-187.254 228.173s-48.549 195.125-28.932 293.748c19.617 98.623 68.039 189.214 139.142 260.318s161.694 119.525 260.318 139.142c98.623 19.617 200.846 9.549 293.748-28.932s172.303-103.646 228.173-187.254c55.864-83.609 85.683-181.905 85.683-282.462-0.138-134.799-53.745-264.038-149.064-359.352-95.314-95.319-224.553-148.925-359.352-149.064zM512.005 905.212c-90.43 0-178.828-26.815-254.017-77.055s-133.791-121.647-168.397-205.192c-34.606-83.545-43.66-175.477-26.018-264.166 17.642-88.694 61.188-170.163 125.13-234.102 63.943-63.944 145.411-107.489 234.102-125.133s180.622-8.586 264.165 26.020c83.548 34.606 154.957 93.21 205.194 168.397s77.056 163.584 77.056 254.013c0 60.044-11.827 119.498-34.806 174.97s-56.653 105.875-99.113 148.332c-42.455 42.457-92.856 76.135-148.332 99.112-55.47 22.978-114.924 34.804-174.966 34.804z" />
<glyph unicode="&#xe90e;" glyph-name="granny" d="M511.995-31.879c-94.91 0-187.69 28.141-266.607 80.873s-140.424 127.679-176.746 215.366c-36.321 87.687-45.825 184.176-27.308 277.264s64.221 178.595 131.334 245.708c67.113 67.112 152.62 112.817 245.708 131.334s189.577 9.013 277.264-27.308c87.687-36.321 162.634-97.829 215.366-176.746s80.873-171.697 80.873-266.607c-0.121-127.237-50.721-249.228-140.688-339.195s-211.959-140.567-339.195-140.688zM511.995 881.341c-85.704 0-169.485-25.415-240.748-73.030s-126.804-115.294-159.603-194.476c-32.798-79.182-41.38-166.313-24.659-250.37 16.72-84.061 57.991-161.275 118.595-221.878s137.817-101.874 221.876-118.598c84.059-16.719 171.187-8.136 250.37 24.66 79.183 32.801 146.86 88.343 194.476 159.604s73.030 155.043 73.030 240.752c-0.242 114.851-45.978 224.929-127.19 306.142s-191.293 126.948-306.148 127.193zM330.932 261.818c-25.316 0-50.063 7.508-71.113 21.574-21.050 14.061-37.456 34.053-47.144 57.442s-12.223 49.124-7.284 73.956c4.939 24.827 17.13 47.635 35.031 65.536 17.901 17.903 40.709 30.094 65.538 35.033s50.566 2.404 73.955-7.284c23.389-9.688 43.38-26.092 57.445-47.144 14.065-21.048 21.571-45.796 21.571-71.112 0-16.808-3.311-33.452-9.743-48.984-6.433-15.528-15.861-29.64-27.747-41.523-11.886-11.888-25.997-21.318-41.526-27.75s-32.174-9.742-48.984-9.742zM330.932 471.273c-16.208-0.005-32.045-4.85-45.486-13.908s-23.874-21.918-29.965-36.938c-6.091-15.020-7.562-31.516-4.226-47.374 3.336-15.863 11.329-30.366 22.954-41.658 11.626-11.297 26.356-18.865 42.307-21.737 15.951-2.877 32.397-0.926 47.234 5.595 14.837 6.526 27.391 17.324 36.055 31.023s13.045 29.668 12.582 45.871c-0.122 21.565-8.743 42.212-23.992 57.46-15.249 15.253-35.897 23.873-57.462 23.994v-2.327zM693.057 261.818c-25.316 0-50.064 7.508-71.112 21.574-21.053 14.061-37.455 34.053-47.146 57.442-9.686 23.389-12.223 49.124-7.284 73.956 4.938 24.827 17.133 47.635 35.035 65.536 17.897 17.903 40.704 30.094 65.536 35.033 24.827 4.939 50.567 2.404 73.956-7.284s43.38-26.092 57.442-47.144c14.066-21.048 21.574-45.796 21.574-71.112 0-33.946-13.484-66.504-37.492-90.508-24.003-24.008-56.562-37.492-90.508-37.492zM693.057 471.273c-16.109 0-31.86-4.776-45.256-13.726-13.391-8.951-23.831-21.672-29.999-36.557-6.163-14.885-7.778-31.26-4.636-47.062s10.901-30.315 22.295-41.705c11.39-11.394 25.903-19.153 41.705-22.295s32.177-1.527 47.062 4.636c14.885 6.167 27.606 16.607 36.557 30.003 8.951 13.391 13.726 29.142 13.726 45.251 0.312 10.892-1.564 21.732-5.52 31.888-3.952 10.152-9.905 19.405-17.496 27.22-7.596 7.81-16.682 14.019-26.722 18.26-10.035 4.236-20.82 6.419-31.716 6.414v-2.327zM66.086 524.338c-5.365-0.001-10.566 1.852-14.722 5.244s-7.012 8.118-8.085 13.374c-1.111 6.036 0.158 12.268 3.543 17.389s8.621 8.731 14.61 10.073c5.12 0.931 508.741 110.313 644.188 296.495 1.801 2.48 4.073 4.581 6.684 6.183s5.516 2.669 8.546 3.145c3.025 0.476 6.116 0.349 9.095-0.373s5.786-2.025 8.257-3.834c4.911-3.709 8.187-9.179 9.142-15.257 0.959-6.078-0.484-12.29-4.022-17.325-146.153-200.611-650.239-309.993-672.115-314.648l-5.12-0.465zM837.814 601.604c-115.312 3.846-228.92 28.935-335.127 74.007-5.679 2.469-10.142 7.093-12.414 12.854s-2.16 12.188 0.312 17.866c2.467 5.679 7.094 10.144 12.851 12.413 5.762 2.27 12.19 2.157 17.869-0.311 2.327 0 220.625-97.28 404.015-62.836 6.102 1.098 12.39-0.236 17.524-3.715 5.129-3.479 8.699-8.828 9.937-14.903 1.089-6.046-0.261-12.277-3.747-17.334s-8.834-8.53-14.871-9.662c-31.772-5.897-64.037-8.703-96.349-8.378zM588.33 368.877h-152.671c-6.172 0-12.092 2.448-16.456 6.814s-6.817 10.282-6.817 16.454c0.119 6.139 2.609 11.99 6.948 16.328s10.19 6.828 16.324 6.945h152.671c6.135-0.116 11.985-2.607 16.323-6.945s6.828-10.189 6.949-16.328c0-6.172-2.453-12.088-6.819-16.454s-10.282-6.814-16.454-6.814zM226.212 368.877h-167.098c-6.172 0-12.092 2.448-16.456 6.814s-6.816 10.282-6.816 16.454c0.119 6.139 2.609 11.99 6.948 16.328s10.189 6.828 16.324 6.945h167.098c6.172 0 12.092-2.448 16.456-6.814s6.817-10.282 6.817-16.458c0-6.172-2.452-12.088-6.817-16.454s-10.284-6.814-16.456-6.814zM965.348 368.877h-167.564c-6.172 0-12.093 2.448-16.458 6.814-4.361 4.366-6.814 10.282-6.814 16.454 0 6.177 2.453 12.093 6.814 16.458 4.366 4.366 10.287 6.814 16.458 6.814h167.564c6.172 0 12.093-2.448 16.454-6.814 4.366-4.366 6.819-10.282 6.819-16.458 0-6.172-2.453-12.088-6.819-16.454-4.361-4.366-10.282-6.814-16.454-6.814z" />
<glyph unicode="&#xe90f;" glyph-name="fec" d="M591.475-63.829v466.258h157.298l23.381 182.556h-180.679v116.281c0 52.679 14.677 88.747 90.283 88.747h95.801v162.759c-46.612 4.995-93.466 7.407-140.345 7.225-139.036 0-234.496-84.878-234.496-240.697v-133.973h-156.274v-182.556h156.615v-466.6h188.416z" />
<glyph unicode="&#xe910;" glyph-name="tvitter" d="M902.81 652.952c0.666-8.96 0.666-17.869 0.666-26.778 0-272.64-207.514-586.801-586.752-586.801-116.838 0-225.382 33.843-316.723 92.621 16.589-1.894 32.563-2.56 49.818-2.56 92.825-0.225 183.022 30.812 256.051 88.115-43.038 0.778-84.758 14.976-119.335 40.612s-60.286 61.435-73.535 102.388c12.749-1.894 25.549-3.174 38.963-3.174 18.483 0 37.069 2.56 54.323 7.014-46.707 9.43-88.706 34.747-118.855 71.645s-46.588 83.1-46.521 130.749v2.56c27.494-15.309 59.392-24.883 93.184-26.163-28.309 18.811-51.522 44.338-67.567 74.302s-24.424 63.433-24.389 97.423c0 38.298 10.189 73.421 28.058 104.038 51.822-63.745 116.454-115.894 189.713-153.070s153.509-58.55 235.554-62.737c-3.174 15.36-5.12 31.283-5.12 47.258-0.013 27.087 5.312 53.911 15.671 78.938s25.55 47.768 44.704 66.921c19.154 19.153 41.892 34.344 66.918 44.703 25.032 10.359 51.855 15.685 78.94 15.671 59.392 0 112.998-24.883 150.682-65.126 46.172 8.928 90.445 25.783 130.867 49.817-15.391-47.658-47.626-88.069-90.675-113.664 40.95 4.67 80.968 15.439 118.733 31.949-28.206-41.119-63.155-77.176-103.373-106.65z" />
<glyph unicode="&#xe911;" glyph-name="pinterest" d="M443.905 289.439c-25.907-139.571-57.446-273.408-151.040-343.296-28.826 210.944 42.445 369.408 75.52 537.598-56.422 97.792 6.81 294.656 125.798 246.17 146.431-59.699-126.822-363.62 56.628-401.611 191.538-39.629 269.771 342.168 150.987 466.379-171.621 179.251-499.557 4.045-459.212-252.621 9.83-62.771 72.755-81.818 25.139-168.446-109.824 25.139-142.592 114.328-138.342 233.265 6.758 194.56 169.83 330.854 333.363 349.696 206.847 23.859 400.946-78.182 427.724-278.528 30.208-226.099-93.338-471.038-314.469-453.374-59.955 4.762-85.146 35.328-132.096 64.768z" />
<glyph unicode="&#xe912;" glyph-name="ball" d="M512.004 935.62c-269.312 0-487.619-218.307-487.619-487.62s218.307-487.62 487.619-487.62c269.312 0 487.62 218.308 487.62 487.62s-218.308 487.62-487.62 487.62zM512.004 864.964c106.227 0 203.191-39.741 276.821-105.131-54.101-71.363-136.29-118.882-218.65-151.040-46.622 84.911-98.871 166.607-156.402 244.541 32.174 7.756 65.16 11.66 98.256 11.63h-0.026zM334.609 825.466c54.37-81.335 107.034-156.745 155.136-242.103-121.661-31.525-259.145-50.444-386.146-50.76 26.77 129.901 114.030 237.762 231.010 292.838v0.024zM835.076 711.607c60.25-73.629 93.397-165.713 93.892-260.851-96.452 19.017-192.367 23.991-290.035 14.14-10.974 27.379-24.286 53.393-37.035 81.433 84.186 33.963 174.199 92.087 233.178 165.303v-0.024zM523.61 518.852c10.436-22.187 22.528-45.739 33.89-69.803-135.802-59.878-280.259-139.9-355.231-280.188-71.973 79.646-110.329 184.055-107.033 291.354 145.433 0.683 288.183 18.871 428.373 58.637zM743.966 405.163c60.681-0.013 121.105-7.795 179.81-23.159-9.054-56.474-29.628-110.481-60.442-158.66-30.818-48.179-71.215-89.506-118.686-121.404-22.383 101.79-43.716 199.189-81.434 297.395 26.731 3.895 53.713 5.854 80.725 5.854l0.026-0.026zM925.943 397.606c-0.29-2.389-0.559-4.732-0.9-7.070 0.341 2.364 0.631 4.702 0.9 7.070zM586.074 380.297c38.426-99.307 68.582-209.263 88.819-316.271-51.511-21.858-106.906-33.084-162.863-33.011-92.701-0.132-182.778 30.767-255.879 87.77 75.508 122.492 192.464 215.185 329.897 261.487l0.026 0.026z" />
<glyph unicode="&#xe913;" glyph-name="tik-tok" d="M773.683 799.573c0 0 29.013-28.444 0 0-38.889 44.395-60.319 101.408-60.302 160.427h-175.786v-705.422c-1.356-38.172-17.472-74.331-44.955-100.858-27.484-26.533-64.189-41.358-102.387-41.364-80.782 0-147.911 65.991-147.911 147.911 0 97.849 94.436 171.236 191.716 141.084v179.769c-196.267 26.169-368.071-126.293-368.071-320.853 0-189.44 157.013-324.267 323.698-324.267 178.631 0 323.697 145.067 323.697 324.267v357.831c71.282-51.191 156.865-78.657 244.622-78.507v175.787c0 0-106.951-5.12-184.32 84.196z" />
<glyph unicode="&#xe914;" glyph-name="line" d="M26.954 296.559c-3.926-0.043-7.81 0.808-11.359 2.489s-6.668 4.147-9.121 7.212c-2.311 2.668-4.064 5.773-5.155 9.13s-1.498 6.899-1.196 10.416c0.301 3.517 1.305 6.938 2.951 10.061s3.902 5.883 6.634 8.119l253.305 211.806c38.416 31.857 87.892 47.192 137.591 42.646s95.572-28.601 127.571-66.899l60.361-72.219c11.458-13.808 25.573-25.177 41.504-33.436 15.926-8.259 33.355-13.239 51.243-14.645s35.878 0.787 52.903 6.454c17.025 5.666 32.741 14.69 46.215 26.536l144.977 126.653c5.47 4.627 12.536 6.935 19.682 6.432s13.813-3.778 18.583-9.126c2.344-2.634 4.134-5.71 5.271-9.047 1.132-3.337 1.59-6.868 1.337-10.384-0.248-3.516-1.202-6.946-2.797-10.088-1.601-3.142-3.81-5.933-6.505-8.207l-144.977-126.653c-18.89-16.699-40.949-29.428-64.862-37.432s-49.19-11.117-74.326-9.156c-25.142 1.961-49.626 8.956-72.009 20.571s-42.2 27.61-58.276 47.036l-61.439 70.602c-11.279 13.567-25.123 24.777-40.74 32.988s-32.698 13.262-50.269 14.864c-17.57 1.602-35.284-0.276-52.128-5.528s-32.487-13.773-46.034-25.077l-253.305-210.189c-4.518-3.462-9.952-5.523-15.629-5.928z" />
</font>
</defs>
</svg>
